# xmcd
#
# Track frame offsets:
#	150
#	11300
#	22050
#	34550
#	45900
#	57575
#	69650
#	80850
#	89700
#	101325
#	111550
#	124725
#	137500
#	149025
#	162850
#	171475
#
# Disc length: 2435 seconds
#
# Revision: 0
# Processed by: cddbd v1.4PL0 Copyright (c) Steve Scherf et al.
# Submitted via: EasyCDDAExtractor 4.5.0.2
#
DISCID=e5098110
DTITLE=Patsy Cline - Torch 'N' Country cd 2
DYEAR=1900
DGENRE=country
TTITLE0=Stop The World
TTITLE1=I Can See An Angel
TTITLE2=A Poor Man's Roses
TTITLE3=Just Out Of Reach
TTITLE4=In Care Of The Blues
TTITLE5=Today, Tomorrow and Forever
TTITLE6=A Stranger In My Arms
TTITLE7=Ain't No Wheels On This Ship
TTITLE8=Walking After Midnight
TTITLE9=Three Cigarettes In An Ashtray
TTITLE10=Keep Your Hands On The Throttle
TTITLE11=Just A Closer Walk With Thee
TTITLE12=Crazy Dreams
TTITLE13=A Church, A Courtroom and Then Goodbye
TTITLE14=Come On In
TTITLE15=There He Goes
EXTD=
EXTT0=
EXTT1=
EXTT2=
EXTT3=
EXTT4=
EXTT5=
EXTT6=
EXTT7=
EXTT8=
EXTT9=
EXTT10=
EXTT11=
EXTT12=
EXTT13=
EXTT14=
EXTT15=
PLAYORDER=
